<mxfile host="app.diagrams.net" modified="2024-03-11T23:56:31.773Z" agent="Mozilla/5.0 (Windows NT 10.0; Win64; x64) AppleWebKit/537.36 (KHTML, like Gecko) Chrome/122.0.0.0 Safari/537.36" etag="YCO8pWpnTYtwPmX1cwz6" version="24.0.5" type="device">
  <diagram name="1 oldal" id="n8OrkcFLlpgCoDWKU9C3">
    <mxGraphModel dx="898" dy="388" grid="1" gridSize="10" guides="1" tooltips="1" connect="1" arrows="1" fold="1" page="1" pageScale="1" pageWidth="827" pageHeight="1169" math="0" shadow="0">
      <root>
        <mxCell id="0" />
        <mxCell id="1" parent="0" />
        <mxCell id="qBQhOJ0rrGxfD_Lk0JFZ-1" value="Felhasználó" style="shape=umlActor;verticalLabelPosition=bottom;verticalAlign=top;html=1;outlineConnect=0;" vertex="1" parent="1">
          <mxGeometry x="150" y="430" width="30" height="60" as="geometry" />
        </mxCell>
        <mxCell id="qBQhOJ0rrGxfD_Lk0JFZ-5" value="Javascript&amp;nbsp;&lt;div&gt;Frontend&lt;/div&gt;" style="sketch=0;pointerEvents=1;shadow=0;dashed=0;html=1;strokeColor=none;fillColor=#434445;aspect=fixed;labelPosition=center;verticalLabelPosition=bottom;verticalAlign=top;align=center;outlineConnect=0;shape=mxgraph.vvd.web_browser;" vertex="1" parent="1">
          <mxGeometry x="270" y="442.25" width="50" height="35.5" as="geometry" />
        </mxCell>
        <mxCell id="qBQhOJ0rrGxfD_Lk0JFZ-8" value="Web szerver&lt;div&gt;(nginx)&lt;/div&gt;" style="sketch=0;pointerEvents=1;shadow=0;dashed=0;html=1;strokeColor=none;fillColor=#005F4B;labelPosition=center;verticalLabelPosition=bottom;verticalAlign=top;align=center;outlineConnect=0;shape=mxgraph.veeam2.command_line;" vertex="1" parent="1">
          <mxGeometry x="470" y="436.13" width="60" height="47.75" as="geometry" />
        </mxCell>
        <mxCell id="qBQhOJ0rrGxfD_Lk0JFZ-9" value="Spring Boot &lt;br&gt;backend" style="shape=image;html=1;verticalAlign=top;verticalLabelPosition=bottom;labelBackgroundColor=#ffffff;imageAspect=0;aspect=fixed;image=https://cdn2.iconfinder.com/data/icons/boxicons-logos/24/bxl-spring-boot-128.png;imageBackground=none;" vertex="1" parent="1">
          <mxGeometry x="660" y="425" width="70" height="70" as="geometry" />
        </mxCell>
        <mxCell id="qBQhOJ0rrGxfD_Lk0JFZ-10" value="interakció" style="endArrow=classic;html=1;rounded=0;" edge="1" parent="1" target="qBQhOJ0rrGxfD_Lk0JFZ-5">
          <mxGeometry width="50" height="50" relative="1" as="geometry">
            <mxPoint x="180" y="465" as="sourcePoint" />
            <mxPoint x="270" y="455" as="targetPoint" />
          </mxGeometry>
        </mxCell>
        <mxCell id="qBQhOJ0rrGxfD_Lk0JFZ-11" value="bearmaster.hu" style="endArrow=classic;html=1;rounded=0;" edge="1" parent="1">
          <mxGeometry width="50" height="50" relative="1" as="geometry">
            <mxPoint x="340" y="442.25" as="sourcePoint" />
            <mxPoint x="460" y="442" as="targetPoint" />
          </mxGeometry>
        </mxCell>
        <mxCell id="qBQhOJ0rrGxfD_Lk0JFZ-12" value="" style="endArrow=classic;html=1;rounded=0;" edge="1" parent="1">
          <mxGeometry width="50" height="50" relative="1" as="geometry">
            <mxPoint x="450" y="450" as="sourcePoint" />
            <mxPoint x="340" y="450" as="targetPoint" />
          </mxGeometry>
        </mxCell>
        <mxCell id="qBQhOJ0rrGxfD_Lk0JFZ-13" value="api.bearmaster.hu" style="endArrow=classic;html=1;rounded=0;" edge="1" parent="1">
          <mxGeometry width="50" height="50" relative="1" as="geometry">
            <mxPoint x="340" y="469.43" as="sourcePoint" />
            <mxPoint x="460" y="470" as="targetPoint" />
          </mxGeometry>
        </mxCell>
        <mxCell id="qBQhOJ0rrGxfD_Lk0JFZ-15" value="" style="endArrow=classic;html=1;rounded=0;" edge="1" parent="1">
          <mxGeometry width="50" height="50" relative="1" as="geometry">
            <mxPoint x="450" y="477.75" as="sourcePoint" />
            <mxPoint x="350" y="477.75" as="targetPoint" />
          </mxGeometry>
        </mxCell>
        <mxCell id="qBQhOJ0rrGxfD_Lk0JFZ-16" value="localhost:8080" style="endArrow=classic;html=1;rounded=0;" edge="1" parent="1">
          <mxGeometry width="50" height="50" relative="1" as="geometry">
            <mxPoint x="540" y="459.96" as="sourcePoint" />
            <mxPoint x="660" y="459.71" as="targetPoint" />
          </mxGeometry>
        </mxCell>
        <mxCell id="qBQhOJ0rrGxfD_Lk0JFZ-17" value="" style="endArrow=classic;html=1;rounded=0;" edge="1" parent="1">
          <mxGeometry width="50" height="50" relative="1" as="geometry">
            <mxPoint x="650" y="470" as="sourcePoint" />
            <mxPoint x="550" y="470" as="targetPoint" />
          </mxGeometry>
        </mxCell>
        <mxCell id="qBQhOJ0rrGxfD_Lk0JFZ-18" value="" style="shape=image;html=1;verticalAlign=top;verticalLabelPosition=bottom;labelBackgroundColor=#ffffff;imageAspect=0;aspect=fixed;image=https://cdn1.iconfinder.com/data/icons/bootstrap-vol-3/16/filetype-html-128.png" vertex="1" parent="1">
          <mxGeometry x="394" y="410" width="20" height="20" as="geometry" />
        </mxCell>
        <mxCell id="qBQhOJ0rrGxfD_Lk0JFZ-19" value="" style="shape=image;html=1;verticalAlign=top;verticalLabelPosition=bottom;labelBackgroundColor=#ffffff;imageAspect=0;aspect=fixed;image=https://cdn1.iconfinder.com/data/icons/bootstrap-vol-3/16/filetype-json-128.png" vertex="1" parent="1">
          <mxGeometry x="394" y="483.88" width="20" height="20" as="geometry" />
        </mxCell>
        <mxCell id="qBQhOJ0rrGxfD_Lk0JFZ-20" value="" style="shape=image;html=1;verticalAlign=top;verticalLabelPosition=bottom;labelBackgroundColor=#ffffff;imageAspect=0;aspect=fixed;image=https://cdn1.iconfinder.com/data/icons/bootstrap-vol-3/16/filetype-json-128.png" vertex="1" parent="1">
          <mxGeometry x="590" y="475" width="20" height="20" as="geometry" />
        </mxCell>
        <mxCell id="qBQhOJ0rrGxfD_Lk0JFZ-21" value="" style="endArrow=none;dashed=1;html=1;rounded=0;strokeColor=#9d9b9b;" edge="1" parent="1">
          <mxGeometry width="50" height="50" relative="1" as="geometry">
            <mxPoint x="540" y="660" as="sourcePoint" />
            <mxPoint x="540" y="290" as="targetPoint" />
          </mxGeometry>
        </mxCell>
        <mxCell id="qBQhOJ0rrGxfD_Lk0JFZ-22" value="HTTPS" style="text;html=1;align=center;verticalAlign=middle;resizable=0;points=[];autosize=1;strokeColor=none;fillColor=none;" vertex="1" parent="1">
          <mxGeometry x="470" y="288" width="60" height="30" as="geometry" />
        </mxCell>
        <mxCell id="qBQhOJ0rrGxfD_Lk0JFZ-23" value="HTTP" style="text;html=1;align=center;verticalAlign=middle;resizable=0;points=[];autosize=1;strokeColor=none;fillColor=none;" vertex="1" parent="1">
          <mxGeometry x="555" y="288" width="50" height="30" as="geometry" />
        </mxCell>
      </root>
    </mxGraphModel>
  </diagram>
</mxfile>
